<mxfile host="65bd71144e">
    <diagram id="2chgH7osmYiW1c6XhdJm" name="페이지-1">
        <mxGraphModel dx="1824" dy="2418" grid="1" gridSize="10" guides="1" tooltips="1" connect="1" arrows="1" fold="1" page="1" pageScale="1" pageWidth="827" pageHeight="1169" math="0" shadow="0">
            <root>
                <mxCell id="0"/>
                <mxCell id="1" parent="0"/>
                <mxCell id="61" value="" style="rounded=0;whiteSpace=wrap;html=1;" vertex="1" parent="1">
                    <mxGeometry x="30" y="-80" width="1510" height="790" as="geometry"/>
                </mxCell>
                <mxCell id="49" value="" style="rounded=0;whiteSpace=wrap;html=1;" vertex="1" parent="1">
                    <mxGeometry x="760" y="520" width="730" height="150" as="geometry"/>
                </mxCell>
                <mxCell id="22" value="" style="rounded=0;whiteSpace=wrap;html=1;" vertex="1" parent="1">
                    <mxGeometry x="62.5" y="-30" width="907.5" height="300" as="geometry"/>
                </mxCell>
                <mxCell id="51" style="edgeStyle=none;html=1;entryX=0;entryY=0.5;entryDx=0;entryDy=0;" edge="1" parent="1" source="3" target="6">
                    <mxGeometry relative="1" as="geometry"/>
                </mxCell>
                <mxCell id="3" value="카테고리 별 NFT 수집" style="rounded=1;whiteSpace=wrap;html=1;" parent="1" vertex="1">
                    <mxGeometry x="90" y="176" width="120" height="50" as="geometry"/>
                </mxCell>
                <mxCell id="43" style="edgeStyle=none;html=1;entryX=0;entryY=0.5;entryDx=0;entryDy=0;" edge="1" parent="1" source="4" target="42">
                    <mxGeometry relative="1" as="geometry"/>
                </mxCell>
                <mxCell id="4" value="Slug를 사용한&lt;br&gt;NFT Collection ID 검색" style="rounded=1;whiteSpace=wrap;html=1;" parent="1" vertex="1">
                    <mxGeometry x="559" y="26" width="140" height="50" as="geometry"/>
                </mxCell>
                <mxCell id="36" style="edgeStyle=none;html=1;" edge="1" parent="1" source="6" target="27">
                    <mxGeometry relative="1" as="geometry"/>
                </mxCell>
                <mxCell id="6" value="카테고리 별 NFT 정보 조회" style="rounded=1;whiteSpace=wrap;html=1;" parent="1" vertex="1">
                    <mxGeometry x="319" y="176" width="140" height="50" as="geometry"/>
                </mxCell>
                <mxCell id="19" value="" style="outlineConnect=0;dashed=0;verticalLabelPosition=bottom;verticalAlign=top;align=center;html=1;shape=mxgraph.aws3.lambda_function;fillColor=#F58534;gradientColor=none;" vertex="1" parent="1">
                    <mxGeometry x="50" y="-40" width="30" height="30" as="geometry"/>
                </mxCell>
                <mxCell id="20" value="&lt;span style=&quot;color: rgb(0, 0, 0); font-family: Helvetica; font-size: 12px; font-style: normal; font-variant-ligatures: normal; font-variant-caps: normal; font-weight: 400; letter-spacing: normal; orphans: 2; text-align: center; text-indent: 0px; text-transform: none; widows: 2; word-spacing: 0px; -webkit-text-stroke-width: 0px; background-color: rgb(251, 251, 251); text-decoration-thickness: initial; text-decoration-style: initial; text-decoration-color: initial; float: none; display: inline !important;&quot;&gt;hstns-apims-data-s3/&lt;br&gt;nft_collection_categories&lt;/span&gt;" style="text;whiteSpace=wrap;html=1;" vertex="1" parent="1">
                    <mxGeometry x="890" y="382" width="150" height="35" as="geometry"/>
                </mxCell>
                <mxCell id="55" style="edgeStyle=none;html=1;entryX=0.5;entryY=0;entryDx=0;entryDy=0;exitX=0.5;exitY=1;exitDx=0;exitDy=0;exitPerimeter=0;" edge="1" parent="1" source="21" target="53">
                    <mxGeometry relative="1" as="geometry">
                        <mxPoint x="870" y="510" as="targetPoint"/>
                    </mxGeometry>
                </mxCell>
                <mxCell id="21" value="" style="sketch=0;points=[[0,0,0],[0.25,0,0],[0.5,0,0],[0.75,0,0],[1,0,0],[0,1,0],[0.25,1,0],[0.5,1,0],[0.75,1,0],[1,1,0],[0,0.25,0],[0,0.5,0],[0,0.75,0],[1,0.25,0],[1,0.5,0],[1,0.75,0]];outlineConnect=0;fontColor=#232F3E;gradientColor=#60A337;gradientDirection=north;fillColor=#277116;strokeColor=#ffffff;dashed=0;verticalLabelPosition=bottom;verticalAlign=top;align=center;html=1;fontSize=12;fontStyle=0;aspect=fixed;shape=mxgraph.aws4.resourceIcon;resIcon=mxgraph.aws4.s3;" vertex="1" parent="1">
                    <mxGeometry x="830" y="370" width="59" height="59" as="geometry"/>
                </mxCell>
                <mxCell id="24" value="&lt;div style=&quot;text-align: center;&quot;&gt;&lt;span style=&quot;background-color: initial;&quot;&gt;일 1회 동작&lt;/span&gt;&lt;/div&gt;" style="text;whiteSpace=wrap;html=1;" vertex="1" parent="1">
                    <mxGeometry x="320" y="-60" width="80" height="25" as="geometry"/>
                </mxCell>
                <mxCell id="37" style="edgeStyle=none;html=1;entryX=0;entryY=0.5;entryDx=0;entryDy=0;" edge="1" parent="1" source="27" target="35">
                    <mxGeometry relative="1" as="geometry"/>
                </mxCell>
                <mxCell id="38" value="컬랙션 테이블 내 Collection ID에 대한&lt;br&gt;Slug 정보를 찾을 수 없는 경우" style="edgeStyle=none;html=1;entryX=0.5;entryY=1;entryDx=0;entryDy=0;" edge="1" parent="1" source="27" target="4">
                    <mxGeometry relative="1" as="geometry"/>
                </mxCell>
                <mxCell id="27" value="" style="outlineConnect=0;dashed=0;verticalLabelPosition=bottom;verticalAlign=top;align=center;html=1;shape=mxgraph.aws3.rds;fillColor=#2E73B8;gradientColor=none;" vertex="1" parent="1">
                    <mxGeometry x="593" y="160.5" width="72" height="81" as="geometry"/>
                </mxCell>
                <mxCell id="28" value="" style="outlineConnect=0;dashed=0;verticalLabelPosition=bottom;verticalAlign=top;align=center;html=1;shape=mxgraph.aws3.rds;fillColor=#2E73B8;gradientColor=none;" vertex="1" parent="1">
                    <mxGeometry x="1335.5" y="543" width="72" height="81" as="geometry"/>
                </mxCell>
                <mxCell id="33" value="collection_table" style="text;whiteSpace=wrap;html=1;" vertex="1" parent="1">
                    <mxGeometry x="585" y="240.5" width="100" height="21" as="geometry"/>
                </mxCell>
                <mxCell id="52" style="edgeStyle=none;html=1;" edge="1" parent="1" source="35" target="21">
                    <mxGeometry relative="1" as="geometry"/>
                </mxCell>
                <mxCell id="35" value="카테고리 정보 저장" style="rounded=1;whiteSpace=wrap;html=1;" vertex="1" parent="1">
                    <mxGeometry x="789" y="176" width="140" height="50" as="geometry"/>
                </mxCell>
                <mxCell id="44" style="edgeStyle=none;html=1;" edge="1" parent="1" source="42" target="35">
                    <mxGeometry relative="1" as="geometry"/>
                </mxCell>
                <mxCell id="42" value="" style="shape=image;verticalLabelPosition=bottom;labelBackgroundColor=default;verticalAlign=top;aspect=fixed;imageAspect=0;image=data:image/png,iVBORw0KGgoAAAANSUhEUgAAATQAAAE0CAYAAACigc+fAAAABGdBTUEAALGPC/xhBQAAAAFzUkdCAK7OHOkAAAAgY0hSTQAAeiYAAICEAAD6AAAAgOgAAHUwAADqYAAAOpgAABdwnLpRPAAAIABJREFUeF7tnQmUZUd537/XPZvWkUZiRkgIY5NjbHC8LzGckJwYYzsGDF5ibAJZDokdy0sSbB/bB7KR+OAYLwTvyKw2RmLRwg4xASRACNAyQrs0o9m37ul97/du7rdVfVX3vtfdM697Xt/+fjO3q+qrr5Z7361/V9W773Vrx44dBTiO4zSAodzgOI6zWXFBcxynMbigOY7TGFzQHMdpDC5ojuM0Bhc0x3Eagwua4ziNwQXNcZzG4ILmOE5jcEFzHKcxuKA5jtMYXNAcx2kMLmiO4zQGFzTHcRqDC5rjOI3BBc1xnMbgguY4TmNwQXMcpzG4oDmO0xhc0BzHaQwuaI7jNAYXNMdxGoMLmuM4jcEFzXGcxuCC5jhOY3BBcxynMbigOY7TGFzQHMdpDC5ojuM0Bhc0x3Eagwua4ziNwQXNcZzG4ILmOE5jcEFzHKcxuKA5jtMYXNAcx2kMLmiO4zQGFzTHcRqDC5rjOI3BBc1xnMbgguY4TmNwQXMcpzG4oDmO0xhc0BzHaQwuaI7jNAYXNMdxGoMLmuM4jcEFzXGcxuCC5jhOY3BBcxynMbigOY7TGFzQHMdpDC5ojuM0Bhc0x3Eagwua4ziNwQXNcZzG4ILmOE5jcEFzHKcxuKA568rFl18Br/ztN8ObP/cYPPNbvyPPdpy+0tqxY0eRGx2nH7zshjfAi17zyyRqwzvKm60FcOcH3wO3/vEbYeTYodzdcc4bFzSn7zzn+18I//Z3b4SrrvuGYFNBU259y/8sjzdGg+P0ARc0p2+ggKGQoaDl5IKGjBw9RKKGszbH6QcuaM55g0vKl93w+nJ5+St5VqBO0JTDD90P/+cXfsaXoc5544LmnBcoYihmKGq96CVoiu+vOeeLC5pzTuCy8pW//Qdw/bd8e55Vy2oEDcFl6Kfe8VY6HGetuKA5a6LXPlkvVitoiu+vOeeCC5qzKnBJ+aJX/0p4DGOtrFXQFF+GOmvBBc1Zkee//NX0cOy5CJlyroKm0DL07W91YXN64oLmdAWXlfhw7FqXl3Wcr6Ahvgx1VsIFzalAH1f6rd+H57/iNXnWOdMPQVNQ2G78zdfCI3d9Ps9ytjguaE7gfPfJetFPQVN8f83JcUFziLqPK/WT9RA0xT9G5SguaFscfI4Mnyfrxz5ZL9ZT0BDfX3MQF7Qtymo+rtRP1lvQFP8Y1dbGBW0LstqPK/WTjRI0xffXtiYuaFuI9d4n68VGCxqCy1ASNt9f2zK4oG0BzvXjSv3kQgia4vtrWwcXtAajj2G87Jdfn2dtOBdS0JR7Pn07vPd//LovQxuMC1pDuRD7ZL0YBEFTfH+tubigNYx+flypnwySoCG+DG0mLmgNAffJ8APk3/VDL8uzBoJBEzQFhe09b3wd3P/pD+dZzibEBW2Ts54fV+ongypoii9Dm4EL2iYGZ2M4K7sQj2GslUEXNAU/RoVfVTQ7OZ5nOZsAF7RNyKDuk/Viswga4vtrmxcXtE3ERn9cqZ9sJkFTUNje9HM/7MvQTYQL2iZgs+yT9WIzCpri+2ubBxe0AedCflypn2xmQUNwT+1T7/gT/xjVgOOCNqAMwseV+slmFzTF99cGGxe0AWMz75P1oimCpvjHqAYTF7QBYtA+rtRPmiZoiu+vDRYuaAPAWv8K+WakqYKG+DJ0cHBBu4A0bZ+sF00WNAWF7b1vfF25HPWPUV0oXNAuAE14DGOtbAVBU3wZeuFwQdtg+vFXyDcjW0nQFPwY1Z0feLcL2wbigrZBbMaPK/WTrShoiO+vbSwuaOsM7pP9xA2v7+tfId+MbFVBU/xjVBuDC9o6sRX3yXqx1QVN8f219cUFbR1oyseV+okLWsQ/RrV+uKD1ka2+T9YLF7Qqvr/Wf1zQ+kBTP67UT1zQuvPIXZ+HG3/jtb4M7QMuaOdJkz+u1E9c0FbG99fOHxe0c8T3ydaGC9rqwGUofgU4Hs7acUFbI1vp40r9xAVtbfj+2rnhgrZKBumvkG9GXNDODV+Grg0XtFXg+2Tnjwva+fHxt78V/r5chrqw9cYFbQV+/Z2fhm/5AV9enhfTHRgaWYah5+zIc5w1cPrIIXjTz/8wnHVR68pQbnBSnvU9L4SlDoCr/jmwWEDrK7PQumUCOp+fgeVbJqGY6uRezgoU5c23sAxw0d5vgD3X+ptQvXBBWwXtDt9Qyz4WV03r4XlofXAC4OEF/m2Ay83RNizfNAHtz826sK2SxXY5wV3k+w+FzemNC9oaQEFbaLPAOfW0Ti7D8IcnYOgrc9BajCOwZQZj5/EFWP7oNLS/vhCNTgLeazOlkM0vuZCtBRe0NYI3Fy5BUdj8PjNMd2D4E5Mw9MlJgLN4cVa4OtNtaN81B4vvm4T2Y0t57pYFL9tceTlmF/0X57nggnaO6L7Glt9fK2dhw/fNwbbbx8vZ2RKtLLtSd6FKIVz6/AwsbfFlqN5PuLxcaue5zmpxQTtPtvL+2tAT87D9A2MwdN9sWF6aRSY/pmFFLFG7mMBY+/FFWLhpChY/N7flhA3vHd8n6w8uaH1iK+2vDZUzse2fmIDtd07DkO6TtVDAWkamChqdId1i4Yp7aZyXjt8COihsH5uB5cebvwxtF7xPhstLF7L+4ILWR3R/Dd+ZauL92SqXhyhiO0oxQ1FD8DxJtPDk6QjeHFVFq70gRvAIThVlO4ufn4W5csbWPrGceDQBvEzz5WnNLGyNX4AbiQvaOtApmrW/hsvJ7ffOwq7bx2C4XGaSLfOpImJlL0B2MbpeG8lAYVv4+AwsfB6XoV29NxX6GMZi83R6IHBBW0fwty/ewJt5f2340ALsvG0Mtt83W6p0PqOqoyo8lTLiwgtUTsjcjOO2QGlafmIRZt8/CYv3LkBhHgXZTOA9MLXgj2GsNy5o6wzevJtxf234xBLs+tg47PrMJAyVMyVVpXwwysIys1mKVOOSTCtmxpZXKenFe+dh9tYZWNpE+2s4W/d9so3DBW2D0P21QV+G4vJy15en4aKPj8O2k0syCFlk8plWng70OEEsY8tV62CJtA/i8oxN5nCluM7fMQczN09DZ4CXoeExDN8n21Bc0DYY+5jHoA3HnffOwCU3j8L2B2dZPlpVwaF0j44n/uFdz+4FqjldlrUyvSmkRKcUtun3T8HcHfMDJ2z240rOxuKCdoFAQcMbfxB+e+Py8rJSyFDQWoumQ6oTEgbZqChOLkJaoODplX2cI9Oe2tlapf6IfTAEweXn9G0zsHDvhf8YlX9c6cLjgnYB0WUo7q/hXstGMzTdhks+Ng6XfnwMWtPp4+l13ekmSrkpkZzK4xy6hOyB6qBJI/lsT99UwDcK5u9bhKn3z8DiBdhfw9du1j+uNBC4oA0AON5xtrZR+2u4T3bxl6fh8ptGYduJRbblPtKTaDdCwjoS05V5U7W+CqE8V6b+Gq5uhoNOsSVchs7eOQ9TH58t46uq4LzQfTKclS37x5UGAhe0AWIj9td2fn0Wdt80UoYzYIVEydNIxZaIGRt6+dRRJ5QxVX2GTdMYpm1FX1rhltH2yTZMvH8aZu6Yh/Y6CZt/rc9g4oI2gKzH/hrOxHZ/aBQuvmsKWgurqxhnaTQHMgoSZlIS0bFcN6aDL/3MPGrqjIbMUnGoa43drLgsPrEE05+YhfmH+rcM9X2ywcYFbUCx+2vnM25wn+zyj56F3eWx7Wz6bRgh3rUB2aXCmU/mo4M51pfP0vT9SAgCleRjJjlEK8aoxbw/2lZF2GLpkJf50DL07gUY+8AsLDxx7m874vn6Ptng44I24Og+zVr312if7J5puLKclW2XfbIcrU/FoEYvVk2yi5Z8SB2oIUpjiJFEoDBhjEHpivSNAcmqnxUVbM/9OYtrx8c87pwvj4U1LUP1+uPy0vfJBh8XtE3CWr6maNdjc3DV+87AJaWgJY9hWFRkJE5iYbJjhpWb6FERDlu6kKVqMGFjXCIIUq5UdUi/LFysy5sQNf6ImSuWs7Qlmq3N3L24orD51/psPlzQNhm9Pka1/fgiXFkuLS//3AQMyT4ZDnQ7+EM6NxpTLhYkTiYd4jLIc38Ev0ooF7lEEDPxSeuvq5HhryjiwrVe2blwPP+AVgFzDy3BxCfmYL5mGepf67N5cUHbhOj+mn5N0fBUG3Z/bhz2fHQUdhyXB0xbPKir45EtccAXXYVF07mABRLnOgHL64tqk1elsEeXXCwnsz+k1qvI2+Qy0RZbwBnaZLkEHf3AHCye7FCX/Wt9NjcuaJuYYr6A7V+egt3vPwO7Hp2rDmSoDm6lsqnfxVHlo7KfhSSKgqJR8ahAHig66prVUUeoVcQqb0clikL8UV+N8Ys1YNie7sDpj83D8f+3CHPjXQo7mwIXtE3KrqfmYe+HTsPlX5sqha1TztaKsL8WRMMWSKgZtGLKc4LuFDV5WQMofvniLkU27zkq4hTJhYpt3HZ3Q4SskpXWy9SVoscwllr0GMZsufw886E5mL5/CTqb9GuKtjouaJuMnccX4eoPj8CeT56lpSYOOzoKfBeugIXlUthqBnwuFXmaEJFB6gSBQ1N31gznp7Mf7JhN28crqLhpyG7e27aS2aFps/YcEKk7PwebDh9XWsLlZdouCtroR+Zh7snq/poz2LigbRJaCwVc8cWJUszOwM7sMYxkYBctWCpFbanDs6F8ICeIouQ+qb98nU/I4NxcYLq2AZnuacKIp2LTImU2kZDP5vgcahwR44rXBEV/hoQs2tHH1oj7axNfWITT5YytPdOlXmfgcEEbcFDIdn91Ep7+3hNw6QPTbKQZWLdBxjOidhs3uEtha9t5Tx29c5N8EiFuW625KNm8lQh+IRJr41ivmtJrwLEogBiz9WOv5stlJD6GgRv/BQq+5pNPfVsobKc+OAdjpbgtu7ANPC5oA8zO4wvw9A+cgstLQbOPYdSh9kQbCvkYVSlsdjaivnEPTOQgUYGInfnwuJdZXavqTvbMYtNYV9I+ik9LvfLaEH7A1pKnyUY/pbzWK9Hy9OkRjMUOdzi0H8oJprgF07NPtuHMRxZg6v7+fYzK6T8uaAPIjtEl2Hf7GbimPLZNmX2cmvGug0+zwmA0e1coQvjHa/EPc3QKlScpYQSKxIrHfFfsYM8nNZyXykG+DExSJhHeTZUjIh0yQiTWWsgu54FbY/iNsfHjStXZI7lSo7FG66NWPA98o2By/zKcvGUeZnx/bSBxQRsghsrl5Z4vjsPT338KdsnzZMnA7TaKu2H8aTZV4LNrBX2EhzQijFwRE/QX4YhFOaZjnj0zWUiSuWSwSWtRwQlCUTmnvHyeZpOdKSoa530y3vDPtsnCeSSkF6P7ZSY/XoaOfWkJznzal6GDhgvagLB7/xRc/97jcPl+2ScTcLgEgckGXRCFLK02KxxBF3BAFjxbo1mLHd3amMBRNuqY13o1n9I1CpCaTON5jCoOZrAla6oNcNt54ZY8hiEfV+pkVZsSfB7VTxvkH8JPMZlldP5kB07csgBnv7jkwjYguKBdYHAmdv3fnIA9XxinfbLKAMsTKioYzdZ8moplzHNfVoUE+hgV7q9RluTnGhGMsWg+w8lFIFlm5s5EJiQmYZeevYgtsCcLWVHOyuScS3O5us7qid+dlsN+5uLWkmdyfTMH2nD6U4vlMtQ/vX6hcUG7QGyfasO1t52G6247Vcbjfgw/nNoFKzw9sB65nuTio/tr9M5fmkVo8USkrF6FH11QRa2rXDE6Ul9V9ZpoGkVdl5f4zm7o6UratAJ5WUzzXltq09PCGdpouQw9Vs7Ypl3YLhguaBsMzsL2fGUCnvmeY3DRcf4r5JFW74GP5AplqBWFTHyiJrIX/RQffDd0OXucIe9ObesV8bBDPc8TclFMyFu1/Y4sLPGHyOmvkIc8I37Sr7T+qjgm5O90GGhGLNm2DYsK26gvQy8ILmgbyJX7p+Ab/+Y4CZpuwCuc7j3Y1Cek8Uc+wIQ8TRb+L5ooH1PKHHFfbX6Bn19LxYBjsfXYsL7hIMmQF8qig2kn75vWqXYbJjZJYB/x3Uv6cH4vzTD9MqaUyjWveJAFq+FvEJFERl5qulyGHr1lEc5+te3CtoG4oG0AFx1bgOtvPQ1Pu2MsPE8WBhqFhRnVOnxSaMAYcxxAVd96YhtJiZrirWEUjRY9mIvPcDG5wAVzjWiwVyzKTknZViZWNWB5qkOEBDf58REMnJV1/StZ1l6EooaKIaC9rvPg6x96lNmzdKihgIlHluHEp5dgypehG4IL2jqCe2PP+PgZeOatJ0tRS5eXJA5y3ycPH9CgqX8cwdJtPFuoXKumfFJYElmFuPDEriwv85KORcs4Zem0jar4hdmNWnMV7AJ641P9KK5T2ddfxyryuvJ0hBfUnE99MoqXl6p7DdJzSo11NaHP8nQBZ760DIdvXYSFsbwVp5+4oK0DOAu7ulxWfuNNJ+CSA7Ng73g70CtjOoyIPKOKHVjWPbEjSSN1sw8RTzMobR8RnA3hl0rik/ZYXZ6f11nX+/iOrIhJjHZN40F/XWmJw7xdwjZWZvIXQLai2Ei+JvWTq9xeEY6k3soL0+2c6GdMS5j+ggpGWnoe+9gSnC7FbcmXoeuCC1qfueKRafimm4/D1XfH5WW4q2X8KHTb25GcDb6u1Aw4xebw0E6N4V1UbStrrGvNBX8rBQpL7deAm3rS+aXagPqd54RrkDWMb07gFy3iu69p/6048Q8MwzkVOLPECy1OajeJvA9osPXiRcl9tI0408z6YcK6t1Xs15FPHejAoVuX4OwDvgztNy5ofeLickn5rFtOwrX/dwS2T8bHMHgg4E+5sUOOQIOQoyGvi6pUyoLaeADroFOSgdWlzjBzyvtgIJucArrpX6OqfKtrqEob69Ko0hIP2018nkz2yfD5uHjlmEr/pE/4MwgLRWKpvEzlA1DSTkx37zdfrzQ/dw/9sGHWCUyioD112xJMHsgvpHOuuKCdJzgLu64UsW8sxeziymMYTGUA5WQDUMkHIlJnI2oyoqkw+3WcVqpzkUjii4H0EwMcxChs9DVFkp+2waGt3c5uCDNjw/rCXyHP9slsqfwq2TY0jwWm15nVXq6UrF0L1Ww6IpelFrpWGMEfuU/By9DTdy3D4Y/7MrQfuKCdIyhk+748Bs9511FaZubwYOAbtDKwTZyouY9znzyN1NmQWru2gcspOdKMFBy0eU5yDmUCl1H816ji96+F/FA+GvNPNqgw4IO94a8rkT0nWjQWLBjJOsp5IrSmMlu22k71jYzcJ8bzKwMhs9r3qi3pu7Aw1oGD5Wzt5F3tUtii3VkbLmjnwCVH5+Gb33cc9t49AdsWzceV5D6P96kdQjEVxrXJzucTOvhDGRPPye35cMs3qXmPCQ9jNIEm8nptfr7M6nT4g+9xGarlq1dDwW/WxSf8k79CHq4heut+X5ZpY10vjNk/rM3nGmzvslOqpVIVGlDZVyqcF2xxsZzJg204+vfLMOr7a+eEC9oauGhkEZ79oRPw7FtOwPZJ/l6sfGCnN246EDWFsxu68IW4Uwb+SEWEh3SMW3sFI4BVX2lI2gkCRwGn8tWgkgjLCmAX8Js8cCPfClsCjv3ymMOPK9HyMr+ANdQ0npikiiBJ+aZ+TROVKisvZI1PAp4IVP4cn5K8BnLt4zXmshZ+DdgBl54jX+/AgduXYeJATeVOV1zQVsFwuby89vOj8M1/dxQukefJdKAT9p7rev/JIkyK1bnZYYj3NvrYgZGk8+VbF0UKXkXcR0v7LbXmjSVUM8hiLoFCC70C99ZatJS0Z4VdXmjz119zXnbOSWgqpstW9bMktoKeomN7aDxm1yQJdI311HlE8j7kl9+WDn9Gr67K1FHSbERhO/HlZTh6hy9DV4sL2grsvW8Cnvuuw7D3/glKx50hM2DkZg73dN2NqyXwRz4ahMq7kjQwazDlw3gNgyFF80lOJV/PIEeXQLZ73IOsX3ru0ZrAXefl58ISf/8a7ZPp1/pUm07J8rkdNdYX5jqj7GmZbm3VCqS93kahup1nJcO0ZbNCvGVfjxQtyr+Y0typowU8Uc7Wjt/VgY5/YW5PXNBW4D0f3gH3TV5UGcIck3SR34KcTm9qWdphQu7e5ObO66Bd92zpJOY4tmtHfkKUgfSdzrRmU88KVdoBh82n56hHrARjuKzEJ/2Df9JG2mDaR0PWLwv5tjgMbhQxAmfqZdBB3rENNpNvrm3XpjWDKrEz4BTbp8pLlvVLHwtJz7+ApVLI7v1sB0aPde2NAy5oKzLW2Qbvn9kDHyiPsc5wlltzh1bgfP3dH8aAKUbRfDDgAMmGkowbjteNHtOXMJCDJcUKHJIPbGtTWeCfPODqqbYW+6Ej19alpBcDXaKlek4VpKN0TkmGXiyO5uVlEyDa876Z4grGK4NG/MJrI+Y0rL9mWkZz7S8sDPDNllNnAB55olyqz9bX4UQqr41Tzz2Ll8L/Hn86fGT2ChgXYQsD3QzA6mDIBknNKKEomrvcr3ZAKfSbPK+jB9xGIW2Y+VloU8Qgq4jHl+mYiaprfm46G7V1hTpkBpI+wpE2Ki6rBy9FKzkrMlTOsabOpOXKL6cokNYveun5VqmzRThXZ5XRIl2QxMhZgIcfBzg9IpnOirigrRIdgF+YvwzeNrkX7lm4JBno4YYMFiW1VAaZRTJ7+gjkk2hCHEL5YJLhY2Z1UrAygNHGga2D4zW+ilZHP3HWw/9sEZIXEmHpTdbfvM8RzKku5/Iy2FTyFH9+bnkBgv0pK28go+vZY4YUtVWYnhD2l5/mhi5KqF2cnmnBE4cAjp2q+TSG0xMXtHMAl54fmLkS3lzO2I4vbw93b+2YMeR5FX+6sfOhk6dNGbtEygdwBdnDioXlsFSFIyfOKmJ7odsS0ZpVJDgU/3INlYsHClHe++iCOfKGRu4E8Qy4vdSWnF9NeU6KT6Yu+WWw6Twv1It1SFyvgSU5JU0bR/zCygNHSzE7XIoafqeBs2Zc0FYgH3wWFLY/ndwHHyzFbbyzLc82A4gjcTxJzAwwOzAtPdM0gGpGuVApmxbO8nPveno1GcVOTk0dJQzXMquEPrkQUgJmm+sXBn/IzGJF1jZFeB/SlsVA/cLS2FIYm/2FkTGU9Znq1QtQe330WoRqQxpnYSdGWvDIwRZMVD904qwBF7QVyD+uU8c9CxeXs7V98Jm5yxJ7nDHowMiGRt1IYSWIWSs1nwuuigdG0xzOS4z23TTOsDOhmBcJokV+sS0Lmrl9qTPY03QUtvSw9YW4RPK2LNxu5Soz0mhouybFmNlij9c+uS9C3UXt0/+W/OUaLwXs4VLIToxUl5e9fpk69big9ZHPzF4Ofzh+Ddy3cAkbKjd3ZpCk3rZ0/0oieIqA5IM82PJBZwZBPhzy7mhaw0QMcmciW7ZyB0xcohKPQq5pzqS+U9gKzpwKZ1UFm6npk/XmeO6Y1letvXr9Eh87kzTmmDblC0kZx7SM7JuVx9RsCx490oInj7VgscuzZav5ZeqkuKCtgdX8xhxrD8OHpq+AP5/YS498MHZQmAGDER0EGM3HopCb6oZrkIJ8FmTQAcizCJEQ6QPDHSA/qdjWz2G6mc1nIyeBgeQFMbP1mOuXD9Z8Fy2ZCaotRiH0M6dy4pmhkp9RJ2BdyqA57wM9CBKuQRWchR0+w2I2ZfbJVnNvOSvjgrYG8kHYixPL2+GPxvbBLVPp/hoPXLl56258GcjpYOrebp6j5bqFESyJgy8Xhlw2cqozGGuJ41LrD1kJuVtMSEyLomN2Dbhs9YysKT8LSuOPJCPWFLLwBPLXuUdToY8a4AxP0vmpHx8dgv0HhuDUWKzQhay/uKCtM/ctXAzvmLgaPjtr99fkVm/x+EnIRwFUx5NN04AwA5DHPqfzcshKA4gfuuhFIsmJnX5iYEZ5so9GKhXTNAtDNwzJqjmx/3RIZvooSOxlKNuj47ZYqDdYTcFczHqAg4fajl2mMM5S+ZicK++Dg8Nw7OxQ5dt+w75i1u5Kr5NTjwvaBjBeLkNR0P64nLHdXwocEgaCDXtQd3tzHenA5oGQykMC+tdVZggCotOkrBLONqO2JqkGHZhDkqNp/Jk/XGv30bSe/Ms4qLixrXAq5BuW+Vld6ZVLSSw0C60Sy5uajCM+hvHgkSF4+MgwxXPR6sVafJ2IC9oGgsJ269QVcNPknvBpAysEYSzk4lDg/5VvcPKIUyT6aeuN9eV1UQMaC/mhXN1oVrSv6tRK/eM7mxKSSObtI+jB/yxDpi6UpbqiuYmLGGtWqFpHxRDITz1PI+kinD+U/9TpFtxTzsom5+pKRLrNxHJ7nnbqcUHrEyvdcGFmUoaPLO6Ct5zdC7dNyceoaorG7/aytvo4E2cRvAyNPjpcNcT8vLzOfIKdZnJVvwDmRWebQ4S+ZLY8Te1kApqKUYxSgvoV7fSohPHI2whGU1Fd33oi17MOriN0Bo6Xy8p7SyE7Mc5Da6U2us3EcnuedupxQesTesNZYbPxur2S+xcugndPXAX3z18UbErwwkir+8AwrRlrNammGjNE2eo+aLis8Svw3c7UP/mWjULbwp+ZXy7+9pqFn0U0Y3GpQoWX7fyGRH5O2q1gz9NSR+xVrDSvi6AKq9fG+uJM7MFjw/DUCO+TYZ7mUzw/Z2ddcEFbIyvdmHaQ5wO+jonONri9nKm9tZyxPbawM9iTVnpUg1nka30qQhOhoYn5Bdolp6V9jZ5BKOJYh3Q5KB4hX8qLS6/ZW+W6mHSUp97XmV4HOfG8hZAVOqP1hhMxPupiWqYZWbZvhjNSmxYWllrw2Mg2ErOJ2ToPoLKVcyZz6p+nnbXjgrZG6m7MtZDftFof7q/dPLkHPlKK20T4No+c+s1phusJS1ux5v6YZh/01wFu6sXBTgHOwIwL5AIg+12qGVE7yGavUmUWZa4BL39b1Aet1faFnaQIpaV3IsqKrT/LkoScQX5BiLieLjv3AAAgAElEQVR3x1qWlGYyG87CDo8OwX2Hh2FkjPNzkQyY65v2M60zTztrxwVtg+l20+KNjsf+uYvgz0aeBndOXwrzhb43CGEw56XzAVS3tLXw2ObB3cWFwJZZd2TpV+Mb2g4jOc6W9Hzy/iHsmlUosyLKolr4J1WduHKC6qaO1XcOy5BUxk4C+amrhJqtIXbB9jnvP6ZPT6KQbYMjZ4fSjyuJkuZ/Z6DySyb7pdaN1fo5ERe0VbJeNxfWOoS/wcsDwyHAA+ALM5fCO0euhK/P7TLevWZoQANqpUET8/nIhYWXW4mpMsgZM+8SgTRZbI4WInjYNm3l2KdQr9QuGmSLkJ26ycqBnnbhafNZ2DOFCU5qTc8ueErb1JvyuuCS8oGjw/D4qSF6DAPhGaZFZmp0LnxUfrnkaSEIn4SVcs6KuKCtkl43VzfxUOimlxsfD7zoKF7DQcTEJoeK23S5DP3kxOXw16evgsn2UOWDz7ZVGQpmMKbO6qvWuvMhLcM/XQ6czz4yy5EBSn48TOlf6ENNfQhb408uqZkiQ1hWynOtGE/L2EvMZfA6RZuZyzKYL2FqE4Pma0KQU5XXlO3LnRY8VorYA8eGYTx7DEOvo7WG5bBUm/WM0HYsK82unZVxQesD+Q1olxg8qHgGlhySR4ImhwoZ7qDZ9HQpZu8oRe3TE5fBVCly+UCIghrrFXXitqNriHO/MCJ+apepRagSQ3N6nNRBLE6hUSkngzmabQ+kDY6YvkfPijghWF9iVuGz/UkxpxXLk006B2mZfEG/XLTgyOgQfO3gULnMjL+Q8naUkG8vglRZVyZtzekHLmjnwEozMhxJNNOCOOMicZI0HkG0jI+KmAqezuQ075GZnXDT6d1w92T6mEcuqDxmi679jFYROxWWQmdlLAZmUdllQEq7FMiAz0XE1BHtpm/SXvLIh4kn7as4WBGUNnJEl6s5dJ4Q6kqJ3hOzAPcfGpZ9spacV/zlkNetcb32SYb22xw2rVC6y2vmrA4XtHMgFxB7o+YiFIRM0slszPqGsiBlM8ETX/x7l18rBe1vT1wBj5UCV7n9Td+on634yEDFF8Qdf5hyJBLknNrqQXHCAOtgN0pLY3EJmQ5k217oV2Kr9jbkdvC6xKUw58X5mg2SashmxZQP6zK7APDg0WF48Ng2+pN7ts/2UDSdN5eeE16YeG5Itzrye8tZGy5o50i4uVF0SICMWIGIEx7Bzv52NkaH1BPsoOIWhS74Y7zD4cxyCz539mL4yOnLYAb317BTiMy0LDqArTUsi+kk4vCqzBCwkJqywc/XwDxjxcqWDEq9TvXYciYkRAjQLFlSPRlIvrQ/dM11Sch1hB6oD5XRDG1XDuB9soNnWnD/4W30kKzOktFXe8XvXmI62hTuY2pVGy/jsQPxushpJNTV4awNF7Q1QDdckc7AVLgwz4pPEDq0yyCwszGuywhbIXtn4h/Stg2Km3rL49T8MNx87HK4Y/TiUuT45aRBJG0kxPFEohPECI+YEcUOa8CozSd7jPHAVIuKDA5edtSS6hFCGuCSwPqtqJJXegb6IXUVNcrBKqgdMYafWTviGGuM/hicGBuC+w4Mw0n6uBK/VuRV4DVmX9sjeiQkqU8QG2KX1HqNwzlL/7WvKTX1OqvGBW0F9AaOwsI3XC5eiVhJ2tqCOMlB73Bq3ZKXiGCXemxbwbcMn5zeDp86dQk8MrEjDiIEQ/TFstkowVlOMiMIYxzLiEHriePTJtFiQlkGUr1sVb988NYurYIJI2m+DnIqRpW2KKHtWb8UzeMc28TkLMD+w8PwVDkza1OTIkgFeosnXedKaQKvP4WJlek+Sw2VJfaQnzbhM7Y14oK2AmFWJHErKMmMClC0ohgFsRJfK1RBHLVuGUhW8IKASRkVRG0zPPJh6potZ2hfO7sTbjt6KRycLoVNaeXv3+lgSgcLT2ZwucUOQQpkZoFBOr5YENmEP/NWIlqsq0dBihKS7J+nDeQvwhGKprVTXykPffAE+FwWFgEePjYMDx0ZhrkFGQTyGrB4cZ36ulDbFKc5bbSRP9dtB1Klr4r0OfRH+t7typEd23VRWzUuaCsQhEcPsaGw5LMkGgydjvHlPBYjHixaB5etrzvWx3byxb0zGWRkEz8VXPyaHa1jbrkFd4/shK+c2QWzS+YlLtJhQwLFsWikMaYDL5opKelkABZxO97Wg74sBMFEWDHAv5xkqR+2WpFEtc8Uyj+pNBfo5HTLrHYb4NgowIOHh2h2FvbC5Hpy6SjScelt/KhOTMcyehqxjjRusfUy8Vrn/pij7TqrwwVtBax4qPCoqLANorCpDfhGtMJEe2h0sL8VvFBGykeR1APr6HAdIU/aJP8yTW8WSL6Ue2pqGD5x5GLYP7K9FLZWHHkC/vbnGYAYwpQmBhZ1CwMtIFJS1sUDk+uhKkyVeXleltU0RJiZH1dLUBOawFOSqCU5HWF0okVff31spEUfV8Ks0GeJ40F7ZnJNSLRCvr6O0TfstUk96msJviiS2iGtJwhm2ldrd9aGC9oKBPGRmzCImOahiIi9MuNKykiayhibhEGc7EyM6uZyYUYY2pU6JF/bT8RT0k+Ob4cvHN8FR6a2JYMkxK1akB1zuC3Ks+NUzt2a8oFHe3NolbJhHCdeDPuZAS59YG8VtViS/cRUsGiGInkLZXJ6rgWPHWnBUydZyOiG1+tlDhVj/KREYsO4nAcTr0v0i9cgvI6SVvSXh2JnaXG/k8tp2tYR2nJ64oK2AlGsRDjohtU4i1tiR18sU4hIhTyxS14UIQ5DPVRHrI/yW1yW9uikrNatwhfakroSexnOLQLcd3I7/P1Tu2BqQV/2qmBwVNLYbhh4ZtRyloFHPLnSiMT/bKsrY8vS4JU2wn4R2qQfupy1ZTE7ViLthlwGxetQKWKPHWZRwxy8PiSeclBcSvEyk4WYagl5XH/wM3l0ehSP9QTUR8jz6Vytjc6do2rXV8X30FaPC9oKdBOkIBggeeonh/rq4LF5uV3rigLHcRI5a6O05GHboS5Jk09WvqX1sH1+CeDOwzvggVPbYW6ZTpEpdPiIgJCwhEwJgqEeypb9JzKYgVhTtG6Ykk0UJIiL8cRqKuPb9KtdznBPjgA89ATA2XERDbnGKjJ8/eTa6oF5ImpB9CQviBv+KLQ3bNMwOUxZ9olomqqSftf5IWqrfUfYqcUFbQVUwPDAdxZVRNQ+jDe4seFNmIuXClMMTR0hzQcvLaWuUA+XZcGSAZPUqT5crw7gIJhUd+wnhscnhuCOAzvgwCj/iT0VMBaRVhxEEpKVBjzaOMsOQpaCgv0lw07u0CbFErg+bSMdvPHNhmiz7XN/o316poDHDwCcPFNAR/fJ5JzxDQj7GgXRkoP6QNeKfQnTL2yMlvQtrFMOtKkf+fK1DmW0/lAHE/pslZmuv6lPzVno9AZfX6cHLAhxICRCQzYVHXOInxUcHlh6gxux0Xrw4zyarqmf7bFefkQkltdBq+JlfeMSlM9HzwGPg6PD8MVS2E5M4NmJQuCglVmSVaUwzCTLDruwbxYsHKef5CyDtYZ8SaWpbv5I7BXA3DzAgUMABw8VsLSk1yGcihGcaKNDrldIax9NX2MeZZAPGmzfuDW+rpw2olaTRtCSzLwknvwiMX02nk4P9DVwuhBEwB5481IYBcIeqVjF/GhX36wOsovgyOCJwiSCR/kyCKV+EkMK80dGTB9sn6Q9LbO4WMCjJ7bB1w5uo6+UTjawdZNcZhB2dMUBiu1zisVJnHQUUjHJF5OylsGal8VPD5w8WYrZQYDZGbkmEF8zFXGyaZyuoYR0veS1kXIkWJIOfhi2Uhv5yOUIMzXg1zAph0a0UZnoF/I0TQ2IEGNYM0u0/k49+Bo6PQiDAkMdJPamxQEhN6weKmBRrIyIaJrExuSL+IR3Ko09ljdtyECMS87YrpYNfUnajueCy+U44DswW8507n58CJ44PgSL+JhHgZ3hYYRR8sT2ycJoXOdvJITkjIMyuJGHJWThOLYZwHWojZa6MSfEzo6Wy8tHCzh7ls9T+0VxXG9iWkRYb3K6djaUDur10JkdLftBrk2LBR6bJm/pAokY9h3TIS97E0Pb0YP87Llh/ZII1y2Nh18kzqpwQVsB+5u+IlRk1yO16SDRmVYYNOiLN3bBQsR5Mqggfn7TPriLUxF8PgrLxYd0eTamS8xcvPTgwWtsJl9ne9zvWObMOMBDT7Xg2BkdbYwMfxmyKbrssiM/meml6hbQbC4Xl4pqjhKBP1swNwtw8PEOnD5Z2ukRFxYIPh++rlFA+FxV1NRm87B8oBRCut7oY0KuL4ZaFwsW2/m0W+G1jKfLPkjon9Qp2VFY1SZoG87qodfb6Q5eoPwLFxPRMPYwsChf7XwTx5mWxCWP65FBQoNCBklhPubUwjx+sNYKVC5ivPSUASPtRAG0ZaQOa9c+URtQLkMBjp9uwf5Hgf8ICA1Ke+QDUG2t4BJmV/lIFVggIA5aCcObD8GnBctLAEcPtuHIgeUyzn3V8kF05NqoPbw21ic/WumbBfbQGZvm6Ywr9JN+Ysjtar71DTM4KhPLcTr6KlpnNMi1QB9t3+kKvlZOD1gc+EZS8aG4GSxBlCgtSzk80CZHnIVB5Q2AENc6qKzUIeVC+1ImiGrSDxNHO7Yjs44kT+uhvmH9nVAe7eF5tzLE/bVDR3nTHT8DiahoFTIO48CWWBh16BAHJIbmrYUE8pKZStwsb9HHlcZOt+Ho422Yn5GZqwh3EHI8pP54brZfmY+EYWlqD+OX5NXVlxwtfl4Qj2ArQprK0WkZUUviVexyU/fV6q+eo+Dr7vQg+QA6HXhj4g1uRIJuer5BebCIWIggWQFSUcFZF/lQmM0CpV79zR+FjsvqYLX1aZ5991MHjfWjOuU71bTvWr5ap55/AZMTHXjk0QKOHi1FbknqllFoZIuggRvHoo5hzks8M6QA5qOoTY+VQvbIMoyfKlWtLedFR/W87DlQHdn5hOth7SbUw9qT+kxZSmNfNa1CRe1Imu4TCbV8OCSDfMzFMVT2zqQ9pzf4ujk90MEQxKDQGQwPeLWrgNFST27UMADFz87agqjIDCoMNPWluAiOsakI5c/E5XWgYAYxDn3rBIEKfQ/95fas2NEyN5wL54+PFvDUEx0YH7N/vw3HZkE/eZTiYOSABryqAF0P9Y2EbGF+uoDT5dLy7JFleuSf+gemvyAztXB9JaR8fa3MNZHrkofhPE2oIoVpOgesz9aB1w79MC6io68x51MlHG9pHyWkNB76T+qhtqR9raPIrpL89lAfpx59bZwu0A0sN3UUAb2JdaDzYOfZjh5y86oNb2apg0JJo4/uc1F59TPltY7QnvZLB7P0h+z6CIfaTHsU1322UJ/WweKlwsViLOKhdkkvl8vQE4c78OSDyzAtT+MTYcqmQzEbfmKuDEoRhnZZ71gpYiNPLsHilH2kIjtPrEeW7fGXhNkLIz+5frJU03R+XUNcQj1/8m2ZOtSGbYuf2hA6dTpvbbuIIqXXA0O9NLaP4Yg2RPfwEGpLr6/TFXxdnB7YQRVEBW0ykHj/SYWG8+ldSfIxAoTPPNENGwcNzbQwj/xkkJBfms+DR+uTgSh90BlXCFts537G9sLMC9NUPvZNl73av2Rg4/mgzezFqR0F6MTBJTh1aLkUOXTD8nbQ6UCWZDkgeX8sHZid5Q5Ml8vKkUcXYf6sfKsImPOmEjzY6dwkj+3sw4Is1yZco+wgXxNP0sam9jxOfa/Jz9J6viyEmq++hREzPk8VQcyifEmHj0a1uEr/CNTK8PV0uhJmXTiwaHDxzR9t6YAJwiC2IEytOIOwghLCULaaH+oK/lKv9oUGtPVjX2077bfa+Xy0j7qHF4QixCUP+0/1p+eI8enRDhx9cBHGT7Sh0y54tkIjEirks4zFiTacfXQJZk4sQQvL6nXFwvac9IB4LsEeyuj1U5/0+lJdGMprQddcZ29SXrse/LVM3SF5ioo5nqLmixSBFUye+fG1xDxuV+qi14SqiXWjDdM+Q1sRvJZOD3hwZ4OcBlK8CZMZURhAEuqg0BlO8IkDMoQyOwtl0N7itnXPyPYjlBN7VdhMv8s8fvdV+kxlsj5SPH7vmpaL7eT1p+cwcXwZTjy0CNMjyzyOZfzpQNalF8aXp9sw+fgCTB5YhGKRP40QBEx8kj7iodec2ua0hvxa2POQ14ni8VpoG0mIebq8y/Y07Tkn197k6fmH9kWAEPJRIaJryWHwkHioT4xJ++wZrp/THXqNne7YGzbOjGSwFXHJpze5Dpy4IS+DztTFImVmbGbgUtiK71ayeGL7+rEmHhRcV4xr/+x+nLXrgNe8KFgSD21x+XguafvhvMQvzIyoTFGKUwHj5TL09APz0F7AASib2zJtKcrl5dyRBZh+tMyfanN9+pEtvUbYV+qTuW4UN4Ih7UYhk+tAfVH/aAt5Grd2c4RyJk9fJxSUUN6GcrDgcH9YMClp/PjChj5jGTknzop2rY/ybBtOT+h1crqjYqN/L4Bu8JpBgIfOgEK+GahYnmdZMvhl7y0MIhuGdxrVbtJSD7XZ4v5hOgpNYfbE0oMHVk17VI77Fvb0pF3qLx2yMS55/NgJtx/Ow5xXZ6EDI/vnYPLgInQW+Xmv2eMTMPPALCyfXopLXOpvK6ST89C+2X5iXNpTIdN+WFHj89Rzi+ca86NvvDapPYiI8Qv7XybkPvFB1ymki7j8xLLiD9RPrkv/qhQdEtg2YxnMdFaCXiOnO08cuzncUPlNHAWp4CUlhtkgoptdlzG2jNzUNk0DkG5orK8qopyvbYhN+yUHDQgRUi0Xy2f9MvG0bpNv2iU7DdDYnj0PFRA6T7IXsFAuP8cemIP5e2egdXQIhvB5suAv/dG6pE29VnqtYzt5f2M96BtnxbFfYcZjyubxvC3rr2krasFfjuTesHYMC35N6HUhu3kAFw/tX1If5mFM2pZw/MwdMD97iCt2amnt2LEDL7fTg0svuh5e/J1/DVdf9jxKh5vVhnrj601IN6W9sdUXIy3x5zjfyOyg/lpefzPjQGK7tpMNACmvdgqxLO0N8aCK5Uxbph2uT/pGNnaw7cV60M5OsR+x3qRMyY5SZNETn17rlJUX2IxJdzQdQs6j2ksF6BTypJvYsYOar2nM5/Jsxzb414zxF78QZnFbl5YLfrk/XaRYzvprPZpv61MbXh3sI6fLuLxesR72mps9DI/t/y04c/yj7Ox0xQVtDTzn2n8B3/vs18HlFz2D0iQYGEo+3YpyNauDWgQglMmFAkVERiPg7IBvcDSxGMa2Qjmx925H88SPx0waih9/y4WUz+ut1BfjuchSKOej35yhgoaNtrFIS8QM4yhY2LLYsKUgaFgHxlHQaJCzCKBP9FeBkXhLBAVsHZyXimFVwLoJHdJNDBFur1pO45qnH19K6pWrxr7kRT+Xlifg8ON/Boef/HNYXpoQb6cXLmjnwPc9+z/D93/TfwId+HpnxkFuRIHyUpGgWEHjKAx8Lia3tslDQjuhPm3HtscuFTuPj9gPrNi0o77cHmahj/Fnl9BvIhMwPNKv/DGhnN+ONgoaiLjgDEzEDOPAgqNChzVxvviiPeTpbCiKlBWrYJO41o29oTrpekRhCoJHLiic5Npb6ORQYURiPzJ/6Q/7SDnx1wvFdklQnQUcP/xeePLhN9HszFk9LmjnyGW7ngE/UArbc6/9Gboj8XbE364Y2uUl36acy3s6CDvILVzrT8NBRaLFkmaFhOqQ+rROjusoib5cF1Vj6tFcLSd2dFIhlTLsJn6Sr/6K1sGCKD7Y74LnHLtohhYFxgoZhiQstLSUPDq4d5hHy1T0wSOIRSpI6KuiokvNRASlPhWipI6kHiCf0J7JS8pmaSQRvhZfPBXHKH6cDnEKudzZ0TvhiVLIzo7cKTnOWnBBO0+edunz4CXf8TbYves6Gcho5Q3lQBAQIx5ip++vV2EoeNNdSZe0tg4O8X8UQTZFXxWYuP9GY8jUWTcLI4wYWTuFtjwmTZyQPilqR0FDgnjJACfRag0ZWyHiZfxUNNCOcRRJFQ7No0MFTf1TG4knXjZTloWGfxWpDUMVoRA3/vQ9b6YvFT8pW6lD4lqHFc2lpUl4/JE3wVPl8tI5d1zQ+sTznv7T8IPlMnT3TtxfY0HIBz/Fa0SC4mS24mL88N6nlNh4LAS7lknLY9KIoLzKXK4qYraevI8qcOF8JB7ayM5Vsfk7220KUVBYxETQQIQBXWWGprOxXOxoSSp+2FyctWEdHLJw6IwM8zmPxcYII4Va1oikxIPYhDaweBRPRPtNceNbEbjcT2zot7Q4AQcP/AUcLIVsyffJzhsXtD5yebkM/bZS2J7/rP/IsyIc0VZU1FHEgO5p2uDhl0Dzw74ahZqdixL6x7o5LX4YC2VNXVjW9kVFieyRkGfKEdiG7Y/1z8NM4HahoEF8QyDub4mwBRvH7ZIx5kdBUmFhAWN//E9lRZDYJ4qdCg7XIbakP9EWymOeiB3ZjNhp21SHHiad5NXYR0a/APfec4Pvk/URF7R1YHcpbC941q/BPyzFDQc0D3AVA77ccampwhCXeGoLdjKpL/4rZGRoWn25fP5GBBIf4GTfWKeWrbdZe+KncRngtfmYJSd+EX5TI5pUKCAVqXwpqu98Jjb1xeYwT0VCQhIYsks+JWN7QVRaKkb4xJoKXCo+iQ3PT/xsaPNDWUlHv1by2An2Z3zy67D/gd+B0VLQnP7igraOfPPVL4YX/YM3wBWlwPEtr4NdBn/BWkChsXfLQypiJfnsg6FtB114Pw+tqZ8J7SxMbGoPYqWh8WEXK75pu3YpenEuaCgC5dHGU2jprIzPjMWMRS4KXiybCKGKiYSJiNEFzAULy4oN4zVlktkb5kvZymwsqTeLmzoRzFtcnoSHHv09ePLAX4rV6TcuaBvAt1/zU/DCcsZ2xc7r0sGvgx6huIT0j4z0n8q0OAyPR5CdXzquk3I5TYGIntQb2pTQzsR65amoabxuv8zWUZeHtovbtCik2VMUIhEmsUXxasV3PMO+muarfxQ1bDERNolrXhCnUAfbcYYWfGRfTpfCJEZF+uZDEtojsyXCJ/HHDv4VPPTY79Hmv7N+uKBtEDhL+yfP+lX4zn0/JcMLajbqWSxIBHBMYahp449DpdvSk+PqFgUo1FEXWhGy/mpvRUELfhqKTdO2bWvDJSeGuQhFIWOhojieFoYtI1wU57MLwodiYeNaL/lwHM9H30wIMybbLmaEx0Wkfsozwibl2Z4LHFWY+kgbGJ46+0W498HX0zLTWX9c0DaYK3ZdBz/27DfAt171IqBbv8iEAPhTAjy02EXGDFSESUSwleXZ/BCXNO3dSbwy28J4q4d4aZi1RXYtm9VLeeVxSXuZBJlETAZ73CNTcWMhiqEKVSpqyexMQiuOQVhCWSuGHMdeBX8tY/0kHcrgS4Xnpe2YNhArlMjU3BG4a/+vwWnfJ9tQXNAuEN91zU/CP3vmr8KechnKGLGqERvKqxEZG688ra/1aNzmmbBXXtIuDnzxrcvXdF4G45fiHlrBS7ggRCImdh8Na4+b/iIwoQwvEZPymDZh6q/CJPncoXQ2ZvKCr5Rngao+oxZ88HzQj+rh8gvLk/DwU39Fhy8vNx4XtAvMC6791/CC6/4V7NklwpaLi4hSIhImrmktg6OKhl2LhSSpK/FbW561Y9UyktO2NW77KenLZMkZlpEUt0IlD9SqDViwOD8VOzuTs+KmopQLXRAiKY89Y9FkWzITUxu62U8uSD9CGVuvhI8fuwm+8vAbYNGF7ILhgjYAXFnO0l70zF+B7933ChEEFqV8lmbjdXl1Sz3K03xjt2GIG59gM3kUlzZsvXX2vN3L2vwttuidCJeEKli03yXvcrJQqIhlQobNUTrPtyIXxbMqQBqXtrFvIT+2xWVT4QrihkJcFjwxdhfc+8Sb4eTZL4JzYXFBGyBQ2P7Nc/8Urr34WyiNQkDCkM14MKxd+pmwrkwIMavVvW5bP9lWEKtaW1bm8qUlqiediUUBCqKmggRRqCq+WDXlc30kLGqr5HP5qqBJ3VQvx3mJafykvjCDM3H0nZg7Al998g/KmdnNWNoZAFzQBpDv2/sK+JHrb6D9ta6CYe1oa4mASBjyMj+Nd61XyiefMUUzxrM2kvqtrxw2TYImYmaXinbGFexD+sBrFJsgdoWJYzcg/5aOKGr6WIa2xU/CRd+KkBnfKGBVEZxfnoT9h2+EB8pjwZeXA4UL2gDzo9f/cnncQCMNNQTHaO3GfyxSybM2iteIns1XG4Xk0sUv70ceSlm17V5eorbtLIyFLAoFChk/YsFiU/k6IfVVm+SH71dDH4rH58uS9lScQr0xVGFTXxW0ZM+tNDw58im449H/Ru9iOoOHC9qAg7O0H3vGDfADe1+eCEq3GVHwyQTLvkOZzLzkIEjsMC2WXBBFDO2H1zFW+TC7jRc829u9uAgoEXa5SSKB8aJGeDRu0iw8ppyUVTEL9Uo5KmPqDCKHPRF/EjVN2zwJSejK+JHxu+BLB/4Ijo19iSzOYOKCtklAYfu1574Trtp5bRALCmtmXEoQmpp8LVuxmTCf/VWXoVg3mlaarRVwxRIKmooOzr7MbEgESTfw45LSiBNwWoVIZ3IsVlqvilAmjrZOY1M7Yt8EIBET3/n2NHzh4B/CvYffTn7OYOOCtsn4R097ObzkGb9UCtt1FcFJ4msQs1yEav01tIJm8jRdW7a0XSlLzjCLwm5ZYWoZIaoTIfQzZWPalosiF98pxWUsP0uW1GtCOqQuu592x1Nvga8deTs9W+ZsDlzQNiEXDV8GP3TNq0nYrAhRvBWXhJRcSdhsmPsWVJ0JUwEl3x51hndiy8K7cYYmvkGMUFBEpOzmfxAp/HwlpKKnwmNnW1VxM/VjOfKTPFMGn3XxEXAAAAeASURBVDOjp+PIL/brqbG74COP/AZMzB9FL2cT4YK2icHl50uv+yV4/tU/USsoFQFDVSKhqopfXr5S1oZYHuuSONkxQJMRPVvX7vYy/bk6pSJEKj7YRbLF/DbaTNrOsKpiFgUsfjmkipU8wJv4cRzrG1s4Brc98ptwaPwu7qSz6XBBawDP2/OD8Jrr/ytctSPbX9MwEyeNW8HJH/uwvpruOcszYpXXi+lLyyWnFTQkipEImYTpUjMTHwmtkCV1qI3SVtysPeZjfbPtafjMobfAXcfeyR1zNi0uaA3iBeVM7eXX/Qe4uhQ2hITFiJRC4qR5ZOD8ZAantlAqF0H+oekklLbwTQRdduKH01nQMGVmavjDCFKtmKG96JGHNapgmbpItNDXlMvDO46/Cz5z+K30bJmz+XFBaxgoZi/e9y/L41VGfGSmVCdqJrSzr2AT8qWpxpM2sjwNseSl9G0bXW41I1KpQOVLw7p3RyUeyqSipntq+XL0iYmvwO0HfxeOzzwc++FselzQGgoK2yvK2doLr3pZT7EhJD8RIbWVImCFTukmcKgsWCSUISN+BXe6h1ZHupSsClIiYihwWEbKBTGTcuGbOahsFLuRhePw3id/B56cuDs27DQGF7SG849LQfupa38Rnmb216zAdQvz2Zr+vc0kbXxZtzi/7rm0XShoEu+FFS0Vp8oeG4VWxKKotQv72U6xl/7T7Sn4zMn3wGfLY86Xl43FBW2L8KN7XwX/fO/Pp8IGOquqClCSRyoVbdaHMkyehmiKfkUpaB3gT2iqJa8ngnkkThSyOKUzNAmBZ2nxo08iguVP/BgVzdDK9BdHboObD78JZpenbDNOA3FB20KgmP30038R/ulVL60VsUTcUMVkVpYvWaMP/6jsjakIUpyr2kl/U2D1t1oqamaJSUKG+WzLl5x2hvfw1FfhtuN/Do9OfsXU7DQZF7QtCArbDd/w3+HbLv0eNhjhQnKh4+UmRlCcagQO0FfmXFqH+HMewI4Of9eFvvPZC2xDfeoELeyxYR4+HFuIj/ieWjwOHzr+F3Dn6O2mVmcr4IK2hfmne14KP3vNL8DeHU+X2Rmw+hTmbw+QXQQPHYxI0QeKqIzM0lTsgpiFCktBQwlSjNr1QIVNxUqXoPQmAdoKI3Clbao9DR878174xKm/hZm2Ly+3Ii5oTilq/x5eevXPwSXbLidBQlR8jKyJ1sXlZPh0gMaNgMnbA5xZBtsLK2gp+oaDhnXYpWQlXtZ818Rn4R3H/gDOlLMzZ+viguYQe8tl6CtLYfuhPS8JOhSkhWZfmohChqFKGGebWwmLsAJS7rZS0OJM79wgEcM2zR8i3j97D/zdyb+Cr09/LXd3tiAuaE4CLj//17P/EvbRpw1YsUiwZAbF8yGdfYVvTgPd8K8+ssE/hzvtipjlMzK7d2ZJ7DIrm+pMwXtO3Qi3jbwv8XW2Ni5oTi04U/v5fb9QCts1ycQr7JFRnMUGcPYFKl0cy2dsw7qU7SJaOSyXEbskffept8EHR26CmY7vkzkpLmhOVy4Zvgx+4uqfg1ftey0bRGXsX3zXGVkQHPUTVPxanQ4l0jlad6yAdfANhTK8f+Ye+P2jb4RTSydyd8chXNCcFdlXLkNfte/fwYuueIlY+F3QsJnfsW8U6NxKZmR4sPJJ2Sr50jPn5OIJePOxN5KgOU4vXNCcVfPtl3w3vO76/wJ7t8tjHoiIUSJHRrysfSXhQuySFD+udMvoTfDu0zdmXo5Tjwuas2Z++Mofh1fvfS3ss8Ims7I6uVqNkJGIGWFEIXvXqRt9n8xZEy5ozjmBy9CfvOqV8IqrfrYiYmEpmgmZzrxym03jsvI95YzMl5fOueCC5pwXOEt7zb7Xwouv+PE8qycoZEP4B4VF5HCjHzf8Xcic88EFzekLKGgobChwlm6zNQWXlB8auckfw3D6ggua01d+8upyGbrnZ+GaHamw1fHJsY/C20b+BCYWxvIsxzknXNCcvoOzNHzT4EeuTJehdKOVM7X9s/f6PpmzLrigOesGCttvPOMN8B2XfDctN6fbk/Bnx/8YPjX+0dzVcfqCC5qz7uD+Gi5BfZ/MWW9c0BzHaQyr+bsVjuM4mwIXNMdxGoMLmuM4jcEFzXGcxuCC5jhOY3BBcxynMbigOY7TGFzQHMdpDC5ojuM0Bhc0x3Eagwua4ziNwQXNcZzG4ILmOE5jcEFzHKcxuKA5jtMYXNAcx2kMLmiO4zQGFzTHcRqDC5rjOI3BBc1xnMbgguY4TmNwQXMcpzG4oDmO0xhc0BzHaQwuaI7jNAYXNMdxGoMLmuM4jcEFzXGcxuCC5jhOY3BBcxynMbigOY7TGFzQHMdpDC5ojuM0Bhc0x3Eagwua4ziNwQXNcZzG4ILmOE5jcEFzHKcxuKA5jtMYXNAcx2kMLmiO4zQGFzTHcRqDC5rjOI3BBc1xnMbgguY4TmNwQXMcpzG4oDmO0xhc0BzHaQwuaI7jNAYXNMdxGoMLmuM4jcEFzXGcxuCC5jhOY3BBcxynMbigOY7TGFzQHMdpDC5ojuM0Bhc0x3Eaw/8HvrsnbCkciI4AAAAASUVORK5CYII=;" vertex="1" parent="1">
                    <mxGeometry x="829" y="20" width="60" height="60" as="geometry"/>
                </mxCell>
                <mxCell id="45" value="reservoir api&lt;br&gt;&amp;lt;&amp;lt;get collection&amp;gt;&amp;gt;" style="text;whiteSpace=wrap;html=1;" vertex="1" parent="1">
                    <mxGeometry x="809" y="-20" width="160" height="21" as="geometry"/>
                </mxCell>
                <mxCell id="48" value="nft_collection_category_table" style="text;whiteSpace=wrap;html=1;" vertex="1" parent="1">
                    <mxGeometry x="1290" y="625" width="163" height="21" as="geometry"/>
                </mxCell>
                <mxCell id="58" style="edgeStyle=none;html=1;entryX=0;entryY=0.5;entryDx=0;entryDy=0;" edge="1" parent="1" source="53" target="54">
                    <mxGeometry relative="1" as="geometry"/>
                </mxCell>
                <mxCell id="53" value="수집된 정보 로드" style="rounded=1;whiteSpace=wrap;html=1;" vertex="1" parent="1">
                    <mxGeometry x="790" y="561.5" width="140" height="50" as="geometry"/>
                </mxCell>
                <mxCell id="56" value="collection_id에 해당되는&lt;br&gt;카테고리가 없을 때&lt;br&gt;데이터 추가" style="edgeStyle=none;html=1;entryX=0;entryY=0.5;entryDx=0;entryDy=0;entryPerimeter=0;" edge="1" parent="1" source="54" target="28">
                    <mxGeometry relative="1" as="geometry"/>
                </mxCell>
                <mxCell id="54" value="카테고리 정보 추가" style="rounded=1;whiteSpace=wrap;html=1;" vertex="1" parent="1">
                    <mxGeometry x="1030" y="558.5" width="140" height="50" as="geometry"/>
                </mxCell>
                <mxCell id="59" value="" style="outlineConnect=0;dashed=0;verticalLabelPosition=bottom;verticalAlign=top;align=center;html=1;shape=mxgraph.aws3.lambda_function;fillColor=#F58534;gradientColor=none;" vertex="1" parent="1">
                    <mxGeometry x="750" y="510" width="30" height="30" as="geometry"/>
                </mxCell>
                <mxCell id="60" value="&lt;div style=&quot;text-align: center;&quot;&gt;&lt;span style=&quot;background-color: initial;&quot;&gt;일 1회 동작&lt;/span&gt;&lt;/div&gt;" style="text;whiteSpace=wrap;html=1;" vertex="1" parent="1">
                    <mxGeometry x="1080" y="490" width="80" height="25" as="geometry"/>
                </mxCell>
            </root>
        </mxGraphModel>
    </diagram>
</mxfile>